<svg xmlns="http://www.w3.org/2000/svg" height="20" width="20"><path d="M14 14q.521 0 1.01-.49.49-.489.49-1.01 0-.5-.427-.677-.427-.177-.948-.177-.5 0-.865.354-.364.354-.364.854 0 .521.302.834Q13.5 14 14 14Zm.125 2.521q.646 0 1.365-.24.718-.239 1.072-.739-.479-.292-1.25-.542-.77-.25-1.312-.25t-.99.208q-.448.209-.927.5.355.5.875.782.521.281 1.167.281ZM14 18q-1.667 0-2.833-1.167Q10 15.667 10 14q0-1.667 1.167-2.833Q12.333 10 14 10q1.667 0 2.833 1.167Q18 12.333 18 14q0 1.667-1.167 2.833Q15.667 18 14 18Zm-4 0q-2.979-.708-4.74-3.177Q3.5 12.354 3.5 9.271V4.5L10 2l6.5 2.5v4.604q-.604-.271-1.219-.437Q14.667 8.5 14 8.5q-2.292 0-3.896 1.604T8.5 14q0 1.125.448 2.146t1.24 1.812l-.084.021Q10.021 18 10 18Z"/></svg>